<svg width="414" height="80" viewBox="0 0 414 99" fill="none" xmlns="http://www.w3.org/2000/svg">
<path opacity="1" d="M65.2848 1H64.2848V2V40.5438H17.7915H17.3751L17.0817 40.8394L1.2902 56.7519L1 57.0443V57.4563V97V98H2H17.7915H18.7915V97V58.4563H64.2848V97V98H65.2848H81.0763H82.0763V97V2V1H81.0763H65.2848ZM232.342 44.1617C229.439 47.0651 226.012 48.499 222.011 48.5C222.01 48.5 222.008 48.5 222.007 48.5L207.886 48.3813L206.135 48.3666L207.012 49.882L234.558 97.5007L234.847 98H235.424H253.59H255.313L254.458 96.5039L235.543 63.3984C240.849 61.0235 245.278 57.2444 248.829 52.0924C252.753 46.5698 254.59 40.4287 254.59 33.5875C254.59 24.6479 251.394 17.0364 245.043 10.5622L245.036 10.5554C238.674 4.193 230.94 1 222.007 1H180.332H178.596L179.466 2.50156L187.659 16.6328L187.725 16.7459L187.817 16.8383L189.598 18.6196L189.891 18.9125H190.305H222.007C226.01 18.9125 229.438 20.3464 232.342 23.2508L232.349 23.2575L232.355 23.264C235.367 26.1648 236.798 29.5868 236.798 33.5875C236.798 37.7195 235.358 41.2563 232.355 44.1485L232.349 44.155L232.342 44.1617ZM350.733 69.3313C350.733 65.4385 350.038 61.8114 348.653 58.4563H363.671H411.164H412.164V57.4563V41.6625V40.6625H411.164H363.671H347.88H346.88V41.6625V54.9243C345.636 52.8396 344.091 50.8744 342.248 49.0304C336.717 43.4986 329.932 40.6625 321.949 40.6625H298.322C295.156 40.6625 292.68 39.5893 290.489 37.4019C288.421 35.2201 287.448 32.74 287.448 29.6687C287.448 28.2244 287.671 26.8171 288.203 25.5408C288.753 24.2197 289.516 23.0277 290.48 22.0633C291.585 20.9577 292.658 20.2126 294.05 19.6771L294.063 19.6721L294.076 19.6668C295.348 19.1366 296.754 18.9125 298.322 18.9125H299.322V17.9125V2V1H298.322C290.338 1 283.549 3.8375 278.016 9.49451C272.498 15.1353 269.657 21.7956 269.657 29.6687C269.657 37.6537 272.493 44.4346 278.016 50.0805L278.024 50.0883C283.555 55.6201 290.339 58.4563 298.322 58.4563H321.949C324.991 58.4563 327.469 59.5255 329.664 61.7169C331.774 63.942 332.942 66.4339 332.942 69.3313C332.942 70.8471 332.617 72.2605 332.069 73.5779L332.063 73.5907L332.058 73.6036C331.52 75.0022 330.772 76.074 329.791 77.0554C328.83 78.0163 327.646 78.7746 326.221 79.3229L326.208 79.3279L326.195 79.3332C324.923 79.8634 323.517 80.0875 321.949 80.0875H320.949V81.0875V97V98H321.949C329.932 98 336.717 95.1639 342.248 89.6321C347.893 83.9855 350.733 77.2013 350.733 69.3313ZM347.201 94.9596L346.88 95.2565V95.6937V97V98H347.88H411.164H412.164V97V81.0875V80.0875H411.164H363.671H363.28L362.992 80.3534L347.201 94.9596ZM347.88 1H345.478L347.17 2.7044L362.961 18.6169L363.255 18.9125H363.671H411.164H412.164V17.9125V2V1H411.164H347.88ZM146.776 1C133.327 1 121.911 5.85834 112.583 15.3078C103.141 24.7521 98.2823 36.1661 98.2823 49.5C98.2823 62.9551 103.143 74.2507 112.586 83.6946C122.028 93.1384 133.322 98 146.776 98C160.227 98 171.519 93.1399 180.961 83.6991C190.53 74.3689 195.388 62.9501 195.388 49.5C195.388 36.1651 190.527 24.7488 180.963 15.3031C171.521 5.86081 160.228 1 146.776 1ZM146.776 18.9125C155.178 18.9125 162.403 21.8945 168.39 27.8821C174.377 33.8696 177.359 41.0966 177.359 49.5C177.359 57.9104 174.491 65.1352 168.39 71.2367C162.41 77.2173 155.188 80.0875 146.776 80.0875C138.359 80.0875 131.019 77.2146 125.042 71.2367C119.065 65.2588 116.193 57.9174 116.193 49.5C116.193 41.0867 119.062 33.8627 125.042 27.8821C131.143 21.7806 138.366 18.9125 146.776 18.9125Z" stroke="#00FF3F" stroke-width="3"/>
</svg>
